<svg xmlns="http://www.w3.org/2000/svg" viewBox="0 0 24 24" fill="#22d3ee">
<path d="M12 0C5.37 0 0 5.37 0 12C0 17.3 3.44 21.8 8.21 23.39C8.81 23.5 9 23.13 9 22.81V20.89C5.66 21.61 4.97 19.38 4.97 19.38C4.42 17.97 3.63 17.59 3.63 17.59C2.54 16.87 3.72 16.88 3.72 16.88C4.93 16.96 5.55 18.1 5.55 18.1C6.62 19.94 8.35 19.39 9.05 19.07C9.16 18.29 9.47 17.77 9.81 17.48C7.14 17.18 4.34 16.11 4.34 11.45C4.34 10.13 4.81 9.05 5.58 8.2C5.46 7.9 5.03 6.66 5.7 4.98C5.7 4.98 6.71 4.66 9 6.21C9.97 5.94 11 5.8 12 5.8C13 5.8 14.03 5.94 15 6.21C17.29 4.66 18.3 4.98 18.3 4.98C18.97 6.66 18.54 7.9 18.42 8.2C19.19 9.05 19.66 10.13 19.66 11.45C19.66 16.12 16.86 17.18 14.18 17.47C14.61 17.85 15 18.61 15 19.78V22.81C15 23.13 15.18 23.5 15.79 23.39C20.56 21.8 24 17.3 24 12C24 5.37 18.63 0 12 0Z"/>
</svg>
